<?xml version="1.0" encoding="UTF-8"?>
<svg version="1.1" xmlns="http://www.w3.org/2000/svg" width="700" height="394">
<path d="M0 0 C7.74431007 1.51108489 13.02972414 7.65724513 17.5234375 13.76171875 C20.60775996 18.43715994 22.16420991 22.320269 22 28 C22.88300781 27.90460938 23.76601562 27.80921875 24.67578125 27.7109375 C35.39661044 26.72061386 44.37598341 26.64759706 53.5390625 32.78125 C55 34 55 34 56 36 C52.02491239 46.02919595 46.01206178 52.37665251 36.3125 56.875 C29.95969053 59.34959373 23.77312901 59.87983158 17 60 C16.84289551 60.53004639 16.68579102 61.06009277 16.52392578 61.60620117 C14.56894114 67.85577561 11.9311661 73.53037791 8.875 79.3125 C8.38854004 80.23458252 7.90208008 81.15666504 7.40087891 82.10668945 C3.52476443 89.30618271 -0.69440572 95.7530906 -6 102 C-6.73992187 102.87785156 -7.47984375 103.75570312 -8.2421875 104.66015625 C-30.03912251 129.66252288 -60.18575506 141.82686236 -92.75 144.6875 C-94.83229192 144.81074293 -96.91577762 144.9154688 -99 145 C-99.98613281 145.04125 -100.97226563 145.0825 -101.98828125 145.125 C-125.40581962 145.60108718 -152.17478604 142.56923487 -170 125.875 C-185.59071928 108.92653039 -192.19096993 85.14028775 -192.5 62.5 C-192.51844971 61.70513184 -192.53689941 60.91026367 -192.5559082 60.09130859 C-192.51936569 56.76051319 -192.38035401 54.52265342 -190.39238644 51.79094028 C-187.18649307 49.39100878 -185.17651357 49.50052485 -181.19056702 49.50120544 C-180.16401848 49.49312861 -180.16401848 49.49312861 -179.11673158 49.48488861 C-176.82363173 49.47161517 -174.53160198 49.48676457 -172.23852539 49.50170898 C-170.59401965 49.49788573 -168.94951725 49.49226664 -167.30502319 49.48498535 C-163.7620242 49.47302495 -160.21932151 49.47353209 -156.67631721 49.48357964 C-151.06449362 49.49914493 -145.45297386 49.48545642 -139.84117126 49.46754456 C-128.92791375 49.43670021 -118.01474873 49.43522261 -107.10145569 49.43719482 C-93.24327502 49.43858648 -79.38516672 49.42808882 -65.52703851 49.3886171 C-59.95920566 49.37375163 -54.39164256 49.37390388 -48.82380593 49.38609493 C-45.34218818 49.39083801 -41.86067153 49.38323586 -38.37907028 49.37255096 C-36.77680699 49.37016396 -35.17452611 49.37281159 -33.57228279 49.38115883 C-24.02347299 49.42788644 -15.25275467 48.64692306 -6 46 C-6 43.03996283 -6.41391127 41.78993993 -7.5 39.125 C-11.065203 28.58291649 -9.15204424 18.08164098 -5 8 C-3.48660651 5.15327684 -1.86408216 2.64078306 0 0 Z " fill="#0092E6" transform="translate(198,142)"/>
<path d="M0 0 C2.38665037 2.33996922 2.96635564 3.72876173 3.38095093 7.07119751 C3.3845311 8.87794449 3.3845311 8.87794449 3.38818359 10.72119141 C3.39344055 11.38846252 3.39869751 12.05573364 3.40411377 12.7432251 C3.4173002 14.94624359 3.40857509 17.14853678 3.3984375 19.3515625 C3.40046007 20.89130796 3.40337304 22.43105248 3.40713501 23.97079468 C3.41155771 27.20051174 3.40513456 30.42997987 3.39111328 33.65966797 C3.37410739 37.77509456 3.38380768 41.88993043 3.40183067 46.00533485 C3.41274401 49.1883477 3.40918638 52.37122389 3.4014473 55.55424118 C3.39946157 57.06991014 3.40184664 58.58559197 3.40888596 60.10124588 C3.46296467 75.03088816 0.92477548 85.52222171 -9.1875 96.75 C-16.55323072 103.80404055 -26.37818693 106.35828612 -36.32421875 106.2109375 C-46.90478031 105.37684944 -56.45818961 100.35494976 -63.375 92.375 C-70.18104484 83.15790689 -72.15270316 73.2993371 -71 62 C-69.253518 51.92525257 -63.97407699 43.97447636 -56.15234375 37.50390625 C-47.13590846 31.20385618 -37.78333424 30.14508449 -27 31 C-21.86905796 32.29811603 -17.40353403 34.06431065 -13 37 C-12.98541748 36.05680908 -12.97083496 35.11361816 -12.95581055 34.1418457 C-12.89460394 30.62841339 -12.82042492 27.11574554 -12.73754883 23.6027832 C-12.70438084 22.08498379 -12.67632368 20.56706344 -12.65356445 19.04907227 C-12.61986722 16.86161981 -12.56754796 14.67526736 -12.51171875 12.48828125 C-12.48553467 11.17384033 -12.45935059 9.85939941 -12.43237305 8.50512695 C-11.97925367 4.83181535 -11.28220145 2.88733318 -9 0 C-5.4314543 -1.18951523 -3.60804584 -0.97717908 0 0 Z M-49 51 C-54.27667641 56.43746157 -56.86009281 61.33308579 -57 69 C-56.22995999 76.35816012 -52.80466185 82.68310543 -47.125 87.375 C-40.31625148 90.91554923 -34.44107002 91.77557715 -27 90 C-20.63104984 87.38478507 -16.51810747 82.81887672 -13 77 C-10.9690724 70.90721719 -10.88644247 63.53748609 -13.5625 57.625 C-16.78723294 52.13609286 -21.81015781 47.7022066 -28 46 C-36.17998618 44.14792766 -42.4632575 45.770606 -49 51 Z " fill="#0092E6" transform="translate(334,160)"/>
<path d="M0 0 C9.64131966 7.22018109 14.40750462 15.36948319 16.23828125 27.26953125 C16.41662791 30.90780308 16.47383339 32.78772005 14.86328125 36.08203125 C9.09349302 40.89018811 -0.9136367 39.40916996 -8.14453125 39.3671875 C-9.08481171 39.36577255 -10.02509216 39.3643576 -10.99386597 39.36289978 C-13.95818443 39.35736133 -16.92242363 39.34482087 -19.88671875 39.33203125 C-21.91275932 39.32700828 -23.93880108 39.32244678 -25.96484375 39.31835938 C-30.89716534 39.30741217 -35.82942867 39.29019106 -40.76171875 39.26953125 C-38.46813048 45.53238873 -34.69807213 49.22524747 -28.76171875 52.26953125 C-22.69480846 54.57077308 -16.39711548 53.5770077 -10.5703125 51.203125 C-8.51626457 50.22547295 -8.51626457 50.22547295 -6.13671875 48.08203125 C-3.76171875 46.26953125 -3.76171875 46.26953125 -0.69921875 45.76953125 C2.23828125 46.26953125 2.23828125 46.26953125 4.61328125 47.89453125 C6.73799004 50.99987486 6.84214417 52.57087085 6.23828125 56.26953125 C3.46804811 60.43141453 0.72269187 62.38943621 -3.76171875 64.51953125 C-4.79296875 65.0196875 -5.82421875 65.51984375 -6.88671875 66.03515625 C-15.60168296 69.77690719 -26.24082786 69.66603482 -35.07421875 66.33203125 C-45.97095376 61.08165288 -52.37937409 53.44370159 -56.76171875 42.26953125 C-59.53171045 33.68765513 -58.36333394 23.41054069 -54.76171875 15.26953125 C-49.5968541 5.50294918 -42.19082448 -1.08420246 -31.76171875 -4.73046875 C-21.1305205 -8.00329631 -9.27981265 -5.81464923 0 0 Z M-40.73046875 19.62109375 C-42.02689877 21.3693452 -42.02689877 21.3693452 -41.76171875 24.26953125 C-27.90171875 24.26953125 -14.04171875 24.26953125 0.23828125 24.26953125 C-2.46099437 17.52134221 -5.65459916 12.9624997 -12.32421875 9.96875 C-24.62578002 6.43993675 -32.87904534 10.39149495 -40.73046875 19.62109375 Z " fill="#0092E6" transform="translate(615.76171875,196.73046875)"/>
<path d="M0 0 C2.85936501 0.99456174 4.11283385 1.58861474 5.875 4 C6.85966253 6.95398758 6.99627836 8.85249022 6.98852539 11.93041992 C6.98844986 12.93123093 6.98837433 13.93204193 6.98829651 14.96318054 C6.98313522 16.04138565 6.97797394 17.11959076 6.97265625 18.23046875 C6.9712413 19.33602615 6.96982635 20.44158356 6.96836853 21.5806427 C6.96276514 25.11628917 6.95021204 28.65187262 6.9375 32.1875 C6.93248544 34.58268138 6.92792246 36.97786375 6.92382812 39.37304688 C6.91279461 45.24871947 6.89605316 51.12435523 6.875 57 C10.35855624 54.72616249 13.84160001 52.45154251 17.32421875 50.17626953 C18.50312276 49.40620995 19.6821543 48.63634557 20.86132812 47.86669922 C22.00667738 47.11909497 23.15173736 46.37104735 24.29650879 45.62255859 C25.44555466 44.87224787 26.59587367 44.12388336 27.74743652 43.37744141 C30.59669469 41.52398377 33.40634999 39.63718496 36.16601562 37.65234375 C37.19919922 36.92144531 38.23238281 36.19054687 39.296875 35.4375 C40.2053418 34.77621094 41.11380859 34.11492187 42.04980469 33.43359375 C45.56139458 31.65170161 47.98527199 31.62746915 51.875 32 C54.3125 33.625 54.3125 33.625 55.875 36 C56.4375 38.9375 56.4375 38.9375 55.875 42 C51.81696675 46.83371365 46.72364263 49.80662643 41.375 53.0625 C33.85923277 57.65025479 33.85923277 57.65025479 26.875 63 C28.23431641 64.43279297 28.23431641 64.43279297 29.62109375 65.89453125 C35.97948323 72.63064683 42.21590626 79.36788882 47.9609375 86.640625 C49.71247512 88.79966321 51.56733795 90.75556336 53.5 92.75 C55.83744501 95.45104756 55.87119904 95.88597107 56 99.75 C54.875 103 54.875 103 53.1875 104.9375 C50.04519142 106.3812634 48.32380973 106.50036688 44.875 106 C42.38032518 104.13884481 40.45001309 101.86168351 38.4375 99.5 C37.86547852 98.85579102 37.29345703 98.21158203 36.70410156 97.54785156 C35.07873176 95.71156297 33.47488746 93.85848195 31.875 92 C31.18792969 91.22140625 30.50085938 90.4428125 29.79296875 89.640625 C28.71170985 88.41502943 27.6370412 87.18357547 26.5703125 85.9453125 C23.66747089 82.61440208 20.67481787 79.36386838 17.6953125 76.1015625 C15.875 74 15.875 74 14.875 72 C11.72518814 72.69995819 8.85923386 73.78255136 5.875 75 C5.89594727 75.79696289 5.91689453 76.59392578 5.93847656 77.41503906 C6.02163322 81.02656434 6.07366034 84.63788824 6.125 88.25 C6.17527344 90.13138672 6.17527344 90.13138672 6.2265625 92.05078125 C6.23945313 93.25605469 6.25234375 94.46132812 6.265625 95.703125 C6.28657227 96.81333008 6.30751953 97.92353516 6.32910156 99.06738281 C5.77042904 102.67532603 4.74982109 103.8182509 1.875 106 C-1.125 106.5625 -1.125 106.5625 -4.125 106 C-7.2527737 103.16305885 -8.37562372 100.90822633 -8.6396637 96.7878418 C-8.66639223 95.09183316 -8.67114343 93.39539047 -8.65844727 91.69921875 C-8.67137062 90.30565659 -8.67137062 90.30565659 -8.68455505 88.88394165 C-8.70722648 85.81817635 -8.70047429 82.75332418 -8.69140625 79.6875 C-8.69664104 77.55427783 -8.70291699 75.42105799 -8.71018982 73.2878418 C-8.72059602 68.8190623 -8.71602883 64.3506012 -8.70141602 59.88183594 C-8.68422197 54.15489683 -8.70773056 48.42896041 -8.74290562 42.70213318 C-8.76486363 38.29774323 -8.76344206 33.89359383 -8.7551403 29.48916626 C-8.75432003 27.37764384 -8.76119789 25.26610389 -8.77591133 23.15463257 C-8.79332875 20.20272114 -8.77883803 17.25261978 -8.75610352 14.30078125 C-8.76779572 13.42894196 -8.77948792 12.55710266 -8.79153442 11.65884399 C-8.72292818 7.28131217 -8.51495977 5.5125918 -5.78086853 1.91870117 C-3.125 0 -3.125 0 0 0 Z " fill="#0092E6" transform="translate(501.125,159)"/>
<path d="M0 0 C8.32540083 5.93869233 13.86549561 13.73955461 16.1328125 23.73828125 C17.84109183 34.72667265 16.12602808 44.49700827 9.88671875 53.78125 C7.98654378 56.29420329 5.90630468 58.42143517 3.56640625 60.52734375 C2.82390625 61.20796875 2.08140625 61.88859375 1.31640625 62.58984375 C-6.91829026 68.39156175 -15.4813591 70.31189947 -25.43359375 69.52734375 C-35.92340364 67.60827776 -44.73623699 62.59888904 -50.96484375 53.90234375 C-57.1180934 43.95240814 -59.13355733 33.9247542 -56.78515625 22.32421875 C-53.70393487 12.05348082 -47.76036963 3.94873821 -38.43359375 -1.47265625 C-25.85730866 -7.88057294 -12.03195335 -7.28097337 0 0 Z M-39.62109375 18.08984375 C-42.67784659 23.88713361 -44.20823899 30.32899404 -42.80859375 36.83984375 C-40.14698595 43.97779194 -36.06023835 49.30717537 -29.10546875 52.64453125 C-23.05655994 54.64314732 -15.90967504 54.59162976 -10.05859375 51.96484375 C-4.37773214 48.62733755 -0.46631662 43.77334674 1.56640625 37.52734375 C2.43825827 30.17742849 2.17671903 23.532373 -2.43359375 17.52734375 C-7.70634095 11.75134085 -12.44373812 9.06971936 -20.30859375 8.21484375 C-28.40414524 9.0243989 -34.3195057 11.87941204 -39.62109375 18.08984375 Z " fill="#0092E6" transform="translate(400.43359375,196.47265625)"/>
<path d="M0 0 C1.31824546 0.74657069 2.61128283 1.53944162 3.875 2.375 C4.63683594 2.81070313 5.39867187 3.24640625 6.18359375 3.6953125 C11.49134439 7.0621006 11.49134439 7.0621006 12.4765625 10.43359375 C12.59521706 13.37299084 12.19608512 15.77060448 10.8125 18.375 C7.59387425 20.03622619 5.46653145 19.83842341 1.875 19.375 C0.40857761 18.61594277 -1.02822673 17.79802969 -2.4375 16.9375 C-7.98131874 13.63379817 -13.16628568 12.64710737 -19.546875 13.8203125 C-24.65099598 15.31044178 -28.49133603 17.40332078 -32.125 21.375 C-35.47154204 27.51553976 -37.33228972 33.36624429 -35.65234375 40.3359375 C-33.6033092 46.74070418 -29.88639676 51.28711464 -24.5625 55.3125 C-18.10253567 57.30921625 -11.0308337 57.48450014 -4.6875 55.0625 C-3.841875 54.505625 -2.99625 53.94875 -2.125 53.375 C3.09029175 50.22409457 3.09029175 50.22409457 7.125 51 C9.875 52.375 9.875 52.375 11.875 55.375 C12.4375 58.1875 12.4375 58.1875 11.875 61.375 C7.15103039 67.35377404 -0.76603958 70.93046333 -8.125 72.375 C-19.62033484 73.33688673 -29.30313355 71.39838258 -38.34765625 64 C-45.63980195 57.33289536 -50.58430983 49.33306209 -51.36328125 39.30859375 C-51.63148349 26.67485652 -48.5950356 17.21269116 -40 7.8125 C-30.20489599 -1.74938725 -12.82026276 -5.43958332 0 0 Z " fill="#0092E6" transform="translate(474.125,192.625)"/>
<path d="M0 0 C3.96675036 1.29820921 5.21772915 2.66215748 7.4375 6.125 C8.11296875 5.77566406 8.7884375 5.42632812 9.484375 5.06640625 C10.37640625 4.61136719 11.2684375 4.15632812 12.1875 3.6875 C13.51007812 3.00880859 13.51007812 3.00880859 14.859375 2.31640625 C22.45051058 -1.19161853 33.3034733 -1.37191996 41.1875 1.4375 C43.98732946 2.8912576 45.48737683 3.76190957 47.4375 6.125 C47.9375 9.5625 47.9375 9.5625 47.4375 13.125 C45.375 15.625 45.375 15.625 42.4375 17.125 C39.125 16.9375 39.125 16.9375 35.4375 16.125 C28.01995078 14.66580999 21.9059837 15.35520954 15.3515625 19.41796875 C10.78852287 23.00871512 7.96852625 27.30204989 7.15687561 33.14526367 C7.04743068 35.34333486 7.02247265 37.52581687 7.03125 39.7265625 C7.02041382 40.52605316 7.00957764 41.32554382 6.99841309 42.14926147 C6.95285661 45.54085805 6.94106705 48.93237115 6.92626953 52.32421875 C6.91054933 54.81277395 6.87755785 57.30069784 6.84375 59.7890625 C6.84677124 60.55062653 6.84979248 61.31219055 6.85290527 62.09683228 C6.78962734 66.58899818 6.32682451 69.61211038 3.4375 73.125 C0.0625 74.25 0.0625 74.25 -3.5625 74.125 C-6.72571622 71.64011126 -8.35371593 70.11062537 -9.19741821 66.12768555 C-9.20139618 65.0169165 -9.20537415 63.90614746 -9.20947266 62.76171875 C-9.23311386 60.86450073 -9.23311386 60.86450073 -9.25723267 58.92895508 C-9.24828256 57.55679449 -9.23802749 56.18464188 -9.2265625 54.8125 C-9.22993342 53.39672428 -9.23478834 51.98095139 -9.24105835 50.56518555 C-9.24841695 47.60274615 -9.23775858 44.64106226 -9.21435547 41.67871094 C-9.18586623 37.88862474 -9.20227594 34.10030877 -9.23221779 30.31028748 C-9.25031941 27.38817092 -9.24452008 24.46647143 -9.23157883 21.54434204 C-9.22825262 20.14734689 -9.23230432 18.75031339 -9.24397659 17.35336304 C-9.25672848 15.39834353 -9.23383275 13.44319057 -9.20947266 11.48828125 C-9.20549469 10.37751221 -9.20151672 9.26674316 -9.19741821 8.12231445 C-8.08980879 2.89352487 -5.32332362 0.18678329 0 0 Z " fill="#0092E6" transform="translate(646.5625,190.875)"/>
<path d="M0 0 C0.94037109 0.00410889 1.88074219 0.00821777 2.84960938 0.01245117 C3.87183594 0.01438477 4.8940625 0.01631836 5.94726562 0.01831055 C7.01847656 0.03055664 8.0896875 0.04280273 9.19335938 0.05541992 C10.26457031 0.05606445 11.33578125 0.05670898 12.43945312 0.05737305 C20.4127571 0.10261878 20.4127571 0.10261878 22.69335938 1.24291992 C22.72223174 5.05540418 22.74011429 8.86786062 22.75585938 12.68041992 C22.76423828 13.7690332 22.77261719 14.85764648 22.78125 15.97924805 C22.78608398 17.53095703 22.78608398 17.53095703 22.79101562 19.11401367 C22.79887085 20.55151978 22.79887085 20.55151978 22.80688477 22.01806641 C22.69335938 24.24291992 22.69335938 24.24291992 21.69335938 25.24291992 C17.72060122 25.49548869 13.73569762 25.42814443 9.75585938 25.43041992 C8.63244141 25.44266602 7.50902344 25.45491211 6.3515625 25.4675293 C5.27970703 25.46946289 4.20785156 25.47139648 3.10351562 25.47338867 C1.62057007 25.479552 1.62057007 25.479552 0.10766602 25.48583984 C-2.30664062 25.24291992 -2.30664062 25.24291992 -4.30664062 23.24291992 C-4.56542969 21.11987305 -4.56542969 21.11987305 -4.57226562 18.52416992 C-4.57484375 17.59217773 -4.57742187 16.66018555 -4.58007812 15.69995117 C-4.57234375 14.72413086 -4.56460938 13.74831055 -4.55664062 12.74291992 C-4.564375 11.76709961 -4.57210937 10.7912793 -4.58007812 9.78588867 C-4.5775 8.85389648 -4.57492188 7.9219043 -4.57226562 6.96166992 C-4.57000977 6.10508789 -4.56775391 5.24850586 -4.56542969 4.3659668 C-4.18133058 1.21490467 -3.12224841 0.32881426 0 0 Z " fill="#0092E6" transform="translate(121.306640625,162.757080078125)"/>
<path d="M0 0 C1.53333984 -0.00386719 1.53333984 -0.00386719 3.09765625 -0.0078125 C4.16886719 -0.00007812 5.24007812 0.00765625 6.34375 0.015625 C7.95056641 0.00402344 7.95056641 0.00402344 9.58984375 -0.0078125 C10.61207031 -0.00523437 11.63429688 -0.00265625 12.6875 0 C13.62787109 0.00225586 14.56824219 0.00451172 15.53710938 0.00683594 C17.84375 0.265625 17.84375 0.265625 19.84375 2.265625 C20.08666992 4.49633789 20.08666992 4.49633789 20.07421875 7.23828125 C20.07228516 8.21990234 20.07035156 9.20152344 20.06835938 10.21289062 C20.04999023 11.75493164 20.04999023 11.75493164 20.03125 13.328125 C20.03060547 14.36001953 20.02996094 15.39191406 20.02929688 16.45507812 C19.98390997 24.12546503 19.98390997 24.12546503 18.84375 25.265625 C16.99005389 25.35300145 15.13307459 25.37260653 13.27734375 25.36328125 C12.15263672 25.36005859 11.02792969 25.35683594 9.86914062 25.35351562 C8.68513672 25.34513672 7.50113281 25.33675781 6.28125 25.328125 C5.09337891 25.32361328 3.90550781 25.31910156 2.68164062 25.31445312 C-0.26437226 25.30262175 -3.21028681 25.28613787 -6.15625 25.265625 C-8.04144529 21.49523443 -7.34100994 16.91407905 -7.34375 12.765625 C-7.35599609 11.78980469 -7.36824219 10.81398437 -7.38085938 9.80859375 C-7.38279297 8.87660156 -7.38472656 7.94460937 -7.38671875 6.984375 C-7.39082764 6.12779297 -7.39493652 5.27121094 -7.39916992 4.38867188 C-6.87033454 -0.2331899 -3.90955086 0.00937863 0 0 Z " fill="#0092E6" transform="translate(94.15625,162.734375)"/>
<path d="M0 0 C0.94037109 0.00410889 1.88074219 0.00821777 2.84960938 0.01245117 C3.87183594 0.01438477 4.8940625 0.01631836 5.94726562 0.01831055 C7.01847656 0.03055664 8.0896875 0.04280273 9.19335938 0.05541992 C10.26457031 0.05606445 11.33578125 0.05670898 12.43945312 0.05737305 C20.4127571 0.10261878 20.4127571 0.10261878 22.69335938 1.24291992 C22.72223174 5.05540418 22.74011429 8.86786062 22.75585938 12.68041992 C22.76423828 13.7690332 22.77261719 14.85764648 22.78125 15.97924805 C22.78608398 17.53095703 22.78608398 17.53095703 22.79101562 19.11401367 C22.79887085 20.55151978 22.79887085 20.55151978 22.80688477 22.01806641 C22.69335938 24.24291992 22.69335938 24.24291992 21.69335938 25.24291992 C17.72060122 25.49548869 13.73569762 25.42814443 9.75585938 25.43041992 C8.63244141 25.44266602 7.50902344 25.45491211 6.3515625 25.4675293 C5.27970703 25.46946289 4.20785156 25.47139648 3.10351562 25.47338867 C1.62057007 25.479552 1.62057007 25.479552 0.10766602 25.48583984 C-2.30664062 25.24291992 -2.30664062 25.24291992 -4.30664062 23.24291992 C-4.56542969 21.11987305 -4.56542969 21.11987305 -4.57226562 18.52416992 C-4.57484375 17.59217773 -4.57742187 16.66018555 -4.58007812 15.69995117 C-4.57234375 14.72413086 -4.56460938 13.74831055 -4.55664062 12.74291992 C-4.564375 11.76709961 -4.57210937 10.7912793 -4.58007812 9.78588867 C-4.5775 8.85389648 -4.57492188 7.9219043 -4.57226562 6.96166992 C-4.57000977 6.10508789 -4.56775391 5.24850586 -4.56542969 4.3659668 C-4.18133058 1.21490467 -3.12224841 0.32881426 0 0 Z " fill="#0092E6" transform="translate(121.306640625,134.757080078125)"/>
<path d="M0 0 C1.48294556 0.00616333 1.48294556 0.00616333 2.99584961 0.01245117 C4.06770508 0.01438477 5.13956055 0.01631836 6.24389648 0.01831055 C7.36731445 0.03055664 8.49073242 0.04280273 9.64819336 0.05541992 C11.33912109 0.05638672 11.33912109 0.05638672 13.06420898 0.05737305 C21.44556019 0.10278675 21.44556019 0.10278675 22.58569336 1.24291992 C22.67283167 2.9506435 22.69269343 4.66190641 22.68334961 6.37182617 C22.68012695 7.40629883 22.6769043 8.44077148 22.67358398 9.5065918 C22.66520508 10.59520508 22.65682617 11.68381836 22.64819336 12.80541992 C22.64368164 13.89790039 22.63916992 14.99038086 22.63452148 16.1159668 C22.62269162 18.82500487 22.60620879 21.53393591 22.58569336 24.24291992 C18.58269464 26.24441928 13.48652605 25.42777201 9.08569336 25.43041992 C7.47887695 25.44878906 7.47887695 25.44878906 5.83959961 25.4675293 C4.81737305 25.46946289 3.79514648 25.47139648 2.74194336 25.47338867 C1.33138672 25.479552 1.33138672 25.479552 -0.10766602 25.48583984 C-2.41430664 25.24291992 -2.41430664 25.24291992 -4.41430664 23.24291992 C-4.6730957 21.11987305 -4.6730957 21.11987305 -4.67993164 18.52416992 C-4.68250977 17.59217773 -4.68508789 16.66018555 -4.68774414 15.69995117 C-4.68000977 14.72413086 -4.67227539 13.74831055 -4.66430664 12.74291992 C-4.67204102 11.76709961 -4.67977539 10.7912793 -4.68774414 9.78588867 C-4.68516602 8.85389648 -4.68258789 7.9219043 -4.67993164 6.96166992 C-4.67767578 6.10508789 -4.67541992 5.24850586 -4.6730957 4.3659668 C-4.27982406 1.13965529 -3.17847685 0.31980832 0 0 Z " fill="#0092E6" transform="translate(121.414306640625,106.757080078125)"/>
<path d="M0 0 C1.53333984 -0.00386719 1.53333984 -0.00386719 3.09765625 -0.0078125 C4.16886719 -0.00007812 5.24007812 0.00765625 6.34375 0.015625 C7.95056641 0.00402344 7.95056641 0.00402344 9.58984375 -0.0078125 C10.61207031 -0.00523437 11.63429688 -0.00265625 12.6875 0 C13.62787109 0.00225586 14.56824219 0.00451172 15.53710938 0.00683594 C17.84375 0.265625 17.84375 0.265625 19.84375 2.265625 C20.10253906 4.38867188 20.10253906 4.38867188 20.109375 6.984375 C20.11324219 8.38236328 20.11324219 8.38236328 20.1171875 9.80859375 C20.10945313 10.78441406 20.10171875 11.76023438 20.09375 12.765625 C20.10148437 13.74144531 20.10921875 14.71726563 20.1171875 15.72265625 C20.11460938 16.65464844 20.11203125 17.58664063 20.109375 18.546875 C20.10711914 19.40345703 20.10486328 20.26003906 20.10253906 21.14257812 C19.84375 23.265625 19.84375 23.265625 17.84375 25.265625 C15.53710938 25.52441406 15.53710938 25.52441406 12.6875 25.53125 C11.15416016 25.53511719 11.15416016 25.53511719 9.58984375 25.5390625 C8.51863281 25.53132813 7.44742188 25.52359375 6.34375 25.515625 C4.73693359 25.52722656 4.73693359 25.52722656 3.09765625 25.5390625 C2.07542969 25.53648437 1.05320312 25.53390625 0 25.53125 C-0.94037109 25.52899414 -1.88074219 25.52673828 -2.84960938 25.52441406 C-5.15625 25.265625 -5.15625 25.265625 -7.15625 23.265625 C-7.41503906 21.14257812 -7.41503906 21.14257812 -7.421875 18.546875 C-7.42445312 17.61488281 -7.42703125 16.68289062 -7.4296875 15.72265625 C-7.42195313 14.74683594 -7.41421875 13.77101562 -7.40625 12.765625 C-7.41398437 11.78980469 -7.42171875 10.81398437 -7.4296875 9.80859375 C-7.42710938 8.87660156 -7.42453125 7.94460937 -7.421875 6.984375 C-7.41961914 6.12779297 -7.41736328 5.27121094 -7.41503906 4.38867188 C-6.85235794 -0.22743668 -3.91987592 0.0094034 0 0 Z " fill="#0092E6" transform="translate(94.15625,134.734375)"/>
<path d="M0 0 C1.07507813 -0.00128906 2.15015625 -0.00257813 3.2578125 -0.00390625 C4.38960937 -0.00003906 5.52140625 0.00382813 6.6875 0.0078125 C7.81929687 0.00394531 8.95109375 0.00007812 10.1171875 -0.00390625 C11.19226563 -0.00261719 12.26734375 -0.00132812 13.375 0 C14.86580078 0.00169189 14.86580078 0.00169189 16.38671875 0.00341797 C18.6875 0.1328125 18.6875 0.1328125 19.6875 1.1328125 C19.78682153 2.82839976 19.81830007 4.52806997 19.8203125 6.2265625 C19.82224609 7.77150391 19.82224609 7.77150391 19.82421875 9.34765625 C19.82035156 10.43175781 19.81648438 11.51585937 19.8125 12.6328125 C19.81830078 14.25896484 19.81830078 14.25896484 19.82421875 15.91796875 C19.82292969 16.94792969 19.82164063 17.97789062 19.8203125 19.0390625 C19.81918457 19.99103516 19.81805664 20.94300781 19.81689453 21.92382812 C19.6875 24.1328125 19.6875 24.1328125 18.6875 25.1328125 C16.91890807 25.23227703 15.14638549 25.26361467 13.375 25.265625 C12.29992187 25.26691406 11.22484375 25.26820313 10.1171875 25.26953125 C8.98539063 25.26566406 7.85359375 25.26179688 6.6875 25.2578125 C5.55570313 25.26167969 4.42390625 25.26554687 3.2578125 25.26953125 C2.18273437 25.26824219 1.10765625 25.26695312 0 25.265625 C-0.99386719 25.26449707 -1.98773438 25.26336914 -3.01171875 25.26220703 C-5.3125 25.1328125 -5.3125 25.1328125 -6.3125 24.1328125 C-6.41182153 22.43722524 -6.44330007 20.73755503 -6.4453125 19.0390625 C-6.44724609 17.49412109 -6.44724609 17.49412109 -6.44921875 15.91796875 C-6.44535156 14.83386719 -6.44148438 13.74976563 -6.4375 12.6328125 C-6.44136719 11.54871094 -6.44523437 10.46460938 -6.44921875 9.34765625 C-6.44792969 8.31769531 -6.44664063 7.28773438 -6.4453125 6.2265625 C-6.44418457 5.27458984 -6.44305664 4.32261719 -6.44189453 3.34179688 C-6.19164648 -0.93036239 -3.70725345 0.00420732 0 0 Z " fill="#0092E6" transform="translate(63.3125,134.8671875)"/>
<path d="M0 0 C1.02544922 -0.00128906 2.05089844 -0.00257813 3.10742188 -0.00390625 C4.72680664 0.00189453 4.72680664 0.00189453 6.37890625 0.0078125 C7.45462891 0.00394531 8.53035156 0.00007812 9.63867188 -0.00390625 C11.1787793 -0.00197266 11.1787793 -0.00197266 12.75 0 C13.69673584 0.00112793 14.64347168 0.00225586 15.61889648 0.00341797 C17.94140625 0.1328125 17.94140625 0.1328125 19.94140625 1.1328125 C19.97027861 4.94529676 19.98816117 8.7577532 20.00390625 12.5703125 C20.01228516 13.65892578 20.02066406 14.74753906 20.02929688 15.86914062 C20.03413086 17.42084961 20.03413086 17.42084961 20.0390625 19.00390625 C20.04691772 20.44141235 20.04691772 20.44141235 20.05493164 21.90795898 C19.94140625 24.1328125 19.94140625 24.1328125 18.94140625 25.1328125 C17.17281432 25.23227703 15.40029174 25.26361467 13.62890625 25.265625 C12.55382812 25.26691406 11.47875 25.26820313 10.37109375 25.26953125 C9.23929688 25.26566406 8.1075 25.26179688 6.94140625 25.2578125 C5.80960938 25.26167969 4.6778125 25.26554687 3.51171875 25.26953125 C2.43664062 25.26824219 1.3615625 25.26695312 0.25390625 25.265625 C-0.73996094 25.26449707 -1.73382813 25.26336914 -2.7578125 25.26220703 C-5.05859375 25.1328125 -5.05859375 25.1328125 -6.05859375 24.1328125 C-6.15791528 22.43722524 -6.18939382 20.73755503 -6.19140625 19.0390625 C-6.19333984 17.49412109 -6.19333984 17.49412109 -6.1953125 15.91796875 C-6.19144531 14.83386719 -6.18757813 13.74976563 -6.18359375 12.6328125 C-6.18746094 11.54871094 -6.19132812 10.46460938 -6.1953125 9.34765625 C-6.19402344 8.31769531 -6.19273438 7.28773438 -6.19140625 6.2265625 C-6.19027832 5.27458984 -6.18915039 4.32261719 -6.18798828 3.34179688 C-5.94273755 -0.84504956 -3.65381308 0.0043583 0 0 Z " fill="#0092E6" transform="translate(63.05859375,162.8671875)"/>
<path d="M0 0 C1.02544922 -0.00128906 2.05089844 -0.00257813 3.10742188 -0.00390625 C4.72680664 0.00189453 4.72680664 0.00189453 6.37890625 0.0078125 C7.45462891 0.00394531 8.53035156 0.00007812 9.63867188 -0.00390625 C11.1787793 -0.00197266 11.1787793 -0.00197266 12.75 0 C13.69673584 0.00112793 14.64347168 0.00225586 15.61889648 0.00341797 C17.94140625 0.1328125 17.94140625 0.1328125 19.94140625 1.1328125 C19.97027861 4.94529676 19.98816117 8.7577532 20.00390625 12.5703125 C20.01228516 13.65892578 20.02066406 14.74753906 20.02929688 15.86914062 C20.03413086 17.42084961 20.03413086 17.42084961 20.0390625 19.00390625 C20.04691772 20.44141235 20.04691772 20.44141235 20.05493164 21.90795898 C19.94140625 24.1328125 19.94140625 24.1328125 18.94140625 25.1328125 C17.17281432 25.23227703 15.40029174 25.26361467 13.62890625 25.265625 C12.55382812 25.26691406 11.47875 25.26820313 10.37109375 25.26953125 C9.23929688 25.26566406 8.1075 25.26179688 6.94140625 25.2578125 C5.80960938 25.26167969 4.6778125 25.26554687 3.51171875 25.26953125 C2.43664062 25.26824219 1.3615625 25.26695312 0.25390625 25.265625 C-0.73996094 25.26449707 -1.73382813 25.26336914 -2.7578125 25.26220703 C-5.05859375 25.1328125 -5.05859375 25.1328125 -6.05859375 24.1328125 C-6.15791528 22.43722524 -6.18939382 20.73755503 -6.19140625 19.0390625 C-6.19333984 17.49412109 -6.19333984 17.49412109 -6.1953125 15.91796875 C-6.19144531 14.83386719 -6.18757813 13.74976563 -6.18359375 12.6328125 C-6.18746094 11.54871094 -6.19132812 10.46460938 -6.1953125 9.34765625 C-6.19402344 8.31769531 -6.19273438 7.28773438 -6.19140625 6.2265625 C-6.19027832 5.27458984 -6.18915039 4.32261719 -6.18798828 3.34179688 C-5.94273755 -0.84504956 -3.65381308 0.0043583 0 0 Z " fill="#0092E6" transform="translate(33.05859375,162.8671875)"/>
<path d="M0 0 C0.97710937 -0.00128906 1.95421875 -0.00257813 2.9609375 -0.00390625 C3.98445312 -0.00003906 5.00796875 0.00382813 6.0625 0.0078125 C7.59777344 0.00201172 7.59777344 0.00201172 9.1640625 -0.00390625 C10.14117187 -0.00261719 11.11828125 -0.00132812 12.125 0 C13.02347656 0.00112793 13.92195313 0.00225586 14.84765625 0.00341797 C17.0625 0.1328125 17.0625 0.1328125 19.0625 1.1328125 C19.09137236 4.94529676 19.10925492 8.7577532 19.125 12.5703125 C19.13337891 13.65892578 19.14175781 14.74753906 19.15039062 15.86914062 C19.15522461 17.42084961 19.15522461 17.42084961 19.16015625 19.00390625 C19.16801147 20.44141235 19.16801147 20.44141235 19.17602539 21.90795898 C19.0625 24.1328125 19.0625 24.1328125 18.0625 25.1328125 C16.29390807 25.23227703 14.52138549 25.26361467 12.75 25.265625 C11.67492187 25.26691406 10.59984375 25.26820313 9.4921875 25.26953125 C8.36039063 25.26566406 7.22859375 25.26179688 6.0625 25.2578125 C4.93070313 25.26167969 3.79890625 25.26554687 2.6328125 25.26953125 C1.55773437 25.26824219 0.48265625 25.26695312 -0.625 25.265625 C-1.61886719 25.26449707 -2.61273438 25.26336914 -3.63671875 25.26220703 C-5.9375 25.1328125 -5.9375 25.1328125 -6.9375 24.1328125 C-7.02463831 22.42508892 -7.04450007 20.71382601 -7.03515625 19.00390625 C-7.03193359 17.96943359 -7.02871094 16.93496094 -7.02539062 15.86914062 C-7.01701172 14.78052734 -7.00863281 13.69191406 -7 12.5703125 C-6.99548828 11.47783203 -6.99097656 10.38535156 -6.98632812 9.25976562 C-6.97449826 6.55072755 -6.95801543 3.84179651 -6.9375 1.1328125 C-4.45581386 -0.10803057 -2.77323801 0.00348147 0 0 Z " fill="#0092E6" transform="translate(154.9375,162.8671875)"/>
<path d="M0 0 C2.3125 1.5625 2.3125 1.5625 3.125 4.6875 C3.186875 5.63625 3.24875 6.585 3.3125 7.5625 C1.625 9.125 1.625 9.125 -0.6875 10.5625 C-5.09775641 10.15224359 -5.09775641 10.15224359 -6.6875 8.5625 C-7 5.6875 -7 5.6875 -6.6875 2.5625 C-4.41604258 -0.12959768 -3.49623506 -0.56915454 0 0 Z M-5.6875 3.5625 C-4.6875 6.5625 -4.6875 6.5625 -4.6875 6.5625 Z M0.3125 3.5625 C1.3125 6.5625 1.3125 6.5625 1.3125 6.5625 Z M-2.6875 6.5625 C-3.0175 7.2225 -3.3475 7.8825 -3.6875 8.5625 C-2.6975 8.2325 -1.7075 7.9025 -0.6875 7.5625 C-1.3475 7.2325 -2.0075 6.9025 -2.6875 6.5625 Z " fill="#0092E6" transform="translate(670.6875,254.4375)"/>
</svg>
